<svg width="229" height="28" viewBox="0 0 229 28" fill="none" xmlns="http://www.w3.org/2000/svg">
<path d="M19.592 14.112H24.02V24.156C22.724 25.188 21.212 25.98 19.484 26.532C17.756 27.084 15.98 27.36 14.156 27.36C11.588 27.36 9.272 26.808 7.208 25.704C5.144 24.576 3.524 23.028 2.348 21.06C1.172 19.092 0.584 16.872 0.584 14.4C0.584 11.928 1.172 9.708 2.348 7.74C3.524 5.772 5.144 4.236 7.208 3.132C9.296 2.004 11.636 1.44 14.228 1.44C16.34 1.44 18.26 1.788 19.988 2.484C21.716 3.18 23.168 4.2 24.344 5.544L21.392 8.424C19.472 6.504 17.156 5.544 14.444 5.544C12.668 5.544 11.084 5.916 9.692 6.66C8.324 7.404 7.244 8.448 6.452 9.792C5.684 11.136 5.3 12.672 5.3 14.4C5.3 16.08 5.684 17.592 6.452 18.936C7.244 20.28 8.324 21.336 9.692 22.104C11.084 22.872 12.656 23.256 14.408 23.256C16.376 23.256 18.104 22.824 19.592 21.96V14.112ZM46.6806 27L41.5326 19.62C41.3166 19.644 40.9926 19.656 40.5606 19.656H34.8726V27H30.1926V1.8H40.5606C42.7446 1.8 44.6406 2.16 46.2486 2.88C47.8806 3.6 49.1286 4.632 49.9926 5.976C50.8566 7.32 51.2886 8.916 51.2886 10.764C51.2886 12.66 50.8206 14.292 49.8846 15.66C48.9726 17.028 47.6526 18.048 45.9246 18.72L51.7206 27H46.6806ZM46.5726 10.764C46.5726 9.156 46.0446 7.92 44.9886 7.056C43.9326 6.192 42.3846 5.76 40.3446 5.76H34.8726V15.804H40.3446C42.3846 15.804 43.9326 15.372 44.9886 14.508C46.0446 13.62 46.5726 12.372 46.5726 10.764ZM75.4246 23.076V27H56.5246V1.8H74.9206V5.724H61.2046V12.276H73.3726V16.128H61.2046V23.076H75.4246ZM99.5418 23.076V27H80.6418V1.8H99.0378V5.724H85.3218V12.276H97.4898V16.128H85.3218V23.076H99.5418ZM127.151 1.8V27H123.299L109.403 9.936V27H104.759V1.8H108.611L122.507 18.864V1.8H127.151ZM145.568 27.216C143.072 27.216 140.816 26.664 138.8 25.56C136.808 24.456 135.236 22.932 134.084 20.988C132.956 19.02 132.392 16.824 132.392 14.4C132.392 11.976 132.956 9.792 134.084 7.848C135.236 5.88 136.82 4.344 138.836 3.24C140.852 2.136 143.108 1.584 145.604 1.584C147.476 1.584 149.204 1.896 150.788 2.52C152.372 3.144 153.716 4.056 154.82 5.256L153.128 6.948C151.16 4.956 148.676 3.96 145.676 3.96C143.684 3.96 141.872 4.416 140.24 5.328C138.608 6.24 137.324 7.488 136.388 9.072C135.476 10.656 135.02 12.432 135.02 14.4C135.02 16.368 135.476 18.144 136.388 19.728C137.324 21.312 138.608 22.56 140.24 23.472C141.872 24.384 143.684 24.84 145.676 24.84C148.7 24.84 151.184 23.832 153.128 21.816L154.82 23.508C153.716 24.708 152.36 25.632 150.752 26.28C149.168 26.904 147.44 27.216 145.568 27.216ZM159.959 0.287998H162.515V27H159.959V0.287998ZM169.627 8.064H172.183V27H169.627V8.064ZM170.923 3.924C170.395 3.924 169.951 3.744 169.591 3.384C169.231 3.024 169.051 2.592 169.051 2.088C169.051 1.608 169.231 1.188 169.591 0.827998C169.951 0.467998 170.395 0.287998 170.923 0.287998C171.451 0.287998 171.895 0.467998 172.255 0.827998C172.615 1.164 172.795 1.572 172.795 2.052C172.795 2.58 172.615 3.024 172.255 3.384C171.895 3.744 171.451 3.924 170.923 3.924ZM188.942 7.92C191.318 7.92 193.202 8.616 194.594 10.008C196.01 11.376 196.718 13.38 196.718 16.02V27H194.162V16.272C194.162 14.304 193.67 12.804 192.686 11.772C191.702 10.74 190.298 10.224 188.474 10.224C186.434 10.224 184.814 10.836 183.614 12.06C182.438 13.26 181.85 14.928 181.85 17.064V27H179.294V8.064H181.742V11.556C182.438 10.404 183.398 9.516 184.622 8.892C185.87 8.244 187.31 7.92 188.942 7.92ZM203.658 8.064H206.214V27H203.658V8.064ZM204.954 3.924C204.426 3.924 203.982 3.744 203.622 3.384C203.262 3.024 203.082 2.592 203.082 2.088C203.082 1.608 203.262 1.188 203.622 0.827998C203.982 0.467998 204.426 0.287998 204.954 0.287998C205.482 0.287998 205.926 0.467998 206.286 0.827998C206.646 1.164 206.826 1.572 206.826 2.052C206.826 2.58 206.646 3.024 206.286 3.384C205.926 3.744 205.482 3.924 204.954 3.924ZM221.174 27.18C219.302 27.18 217.622 26.772 216.134 25.956C214.67 25.14 213.518 24 212.678 22.536C211.838 21.048 211.418 19.38 211.418 17.532C211.418 15.684 211.838 14.028 212.678 12.564C213.518 11.1 214.67 9.96 216.134 9.144C217.622 8.328 219.302 7.92 221.174 7.92C222.806 7.92 224.258 8.244 225.53 8.892C226.826 9.516 227.846 10.44 228.59 11.664L226.682 12.96C226.058 12.024 225.266 11.328 224.306 10.872C223.346 10.392 222.302 10.152 221.174 10.152C219.806 10.152 218.57 10.464 217.466 11.088C216.386 11.688 215.534 12.552 214.91 13.68C214.31 14.808 214.01 16.092 214.01 17.532C214.01 18.996 214.31 20.292 214.91 21.42C215.534 22.524 216.386 23.388 217.466 24.012C218.57 24.612 219.806 24.912 221.174 24.912C222.302 24.912 223.346 24.684 224.306 24.228C225.266 23.772 226.058 23.076 226.682 22.14L228.59 23.436C227.846 24.66 226.826 25.596 225.53 26.244C224.234 26.868 222.782 27.18 221.174 27.18Z" fill="white"/>
</svg>
